<?xml version="1.0" encoding="UTF-8"?>
<svg width="2237.7" height="3555.8" version="1.1" viewBox="0 0 592.06 940.81" xmlns="http://www.w3.org/2000/svg" xmlns:osb="http://www.openswatchbook.org/uri/2009/osb">
 <g transform="translate(700.56 1112.6)">
  <circle transform="rotate(90)" cx="164.42" cy="-75.217" r="0" fill="#743b16" stroke-width=".14247"/>
  <path d="m-379.62-1111.8s12.356 166.68 9.8881 273.46c-2.4681 106.78-1.8315 192.84-15.211 255.79-21.958 103.32-50.499 108.22-69.112 247.8-8.2276 61.702 31.312 124.94 91.288 124.94 59.976 0 95.386-64.895 89.572-126.67-12.786-135.86-51.499-154.24-68.986-245.71-9.5729-50.071-10.312-148.5-14.851-256.14-4.539-107.64 5.4089-271.79 5.4089-271.79-10.193-0.8876-19.067-1.3484-27.997-1.6866z" fill="#ff8420" opacity=".996" stroke-opacity="0"/>
 </g>
 <g transform="translate(700.56 1112.6)" fill="#fdf8f5" font-family="'Tw Cen MT'" font-weight="bold">
  <text transform="matrix(21.863 0 0 21.863 -900.71 555.23)" font-size="11.259px" style="font-variant-caps:normal;font-variant-east-asian:normal;font-variant-ligatures:normal;font-variant-numeric:normal;line-height:1.25;shape-inside:url(#rect1030);white-space:pre" xml:space="preserve"><tspan x="8.8632812" y="-38.967292"><tspan fill="#fdf8f5">aS</tspan></tspan></text>
  <text x="-272.41275" y="-294.54126" font-size="246.15px" stroke-width="5.7846" style="font-variant-caps:normal;font-variant-east-asian:normal;font-variant-ligatures:normal;font-variant-numeric:normal;line-height:1.25" xml:space="preserve"><tspan x="-272.41275" y="-294.54126" fill="#fdf8f5" font-family="'Tw Cen MT'" font-size="246.15px" font-weight="bold" stroke-width="5.7846" style="font-variant-caps:normal;font-variant-east-asian:normal;font-variant-ligatures:normal;font-variant-numeric:normal">P</tspan></text>
  <text x="-343.22702" y="-172.61963" font-size="121.98px" stroke-width="3.0495" style="font-variant-caps:normal;font-variant-east-asian:normal;font-variant-ligatures:normal;font-variant-numeric:normal;line-height:1.25" xml:space="preserve"><tspan x="-343.22702" y="-172.61963" fill="#fdf8f5" stroke-width="3.0495">2021</tspan></text>
 </g>
 <g transform="translate(700.56 1112.6)">
  <g transform="matrix(18.231 0 0 30.305 -2087.2 43.118)" fill="#fdf8f5" style="font-variant-caps:normal;font-variant-east-asian:normal;font-variant-ligatures:normal;font-variant-numeric:normal" aria-label="A">
   <path d="m93.086-19.975c0.89547 0.07489 1.9322-0.1296 2.6957-0.55339 0.13614 0.36084 0.59789 1.4733 0.81298 1.7547 0.10846 0.18826 0.26862 0.38487 0.41228 0.5826 0.35999 0.48044 0.7924 1.0541 1.2052 1.7769 0.4509 0.78952 0.80462 1.5501 1.0683 2.2558 0.03144 0.10475 0.06149 0.2109 0.08973 0.31825 0.07975 0.29255 0.14393 0.59635 0.18373 0.90878 0.0781 0.60849 0.06011 1.2467-0.10431 1.8732-0.05772 0.21022-0.1065 0.2874-0.1065 0.2874l-0.03906 0.05169s-0.07682 0.10546-0.18039 0.23848c-0.04817 0.06188-0.09298 0.09985-0.14115 0.16173-0.04675 0.06005-0.05769 0.13136-0.20398 0.09337-0.14628-0.03799-0.25469-0.11784-0.37287-0.20342-0.07442-0.05389-0.19831-0.16181-0.19831-0.16181s-0.1583-0.08075-0.32542-0.24157c-0.19564-0.18827-0.31883-0.31458-0.49061-0.49733-0.26619-0.28319-0.62215-0.44478-0.75164-0.53419-0.27331-0.18872-0.12035-0.74619-0.23016-1.1535-0.01681-0.06339-0.03519-0.12777-0.05497-0.19307-1.208-0.11911-2.6689 0.0016-4.0691 0.27005l-0.0019 0.0079c-0.01103 0.04987-0.02128 0.09898-0.0307 0.14735-0.09755 0.45333 0.07353 0.8161-6e-3 1.1345-0.04502 0.18035-0.44625 0.24409-0.66868 0.36591-0.27234 0.14713-0.42259 0.28076-0.60065 0.42346-0.02304 0.02242-0.04688 0.04588-0.07057 0.07014-0.08527 0.08398-0.23787 0.1768-0.23787 0.1768l-0.18229 0.1861c-0.12158 0.17155-0.07295 0.18265-0.25122 0.2689-0.11325 0.05479-0.29048-0.16021-0.43463-0.32029l-0.18074-0.29276c-0.04667-0.09035-0.02321-0.0039-0.09174-0.22395l-0.07232-0.23223c-0.06938-0.22279-0.04077-0.24197-0.08605-0.44544-0.05305-0.59387 0.06804-0.90174 0.18656-1.4827 0.03546-0.17338 0.08408-0.37128 0.12758-0.5423 0.0265-0.10307 0.07009-0.21589 0.09904-0.31827 0.61813-1.3702 0.62905-1.5618 1.0203-2.1723 0.32062-0.50715 0.37282-0.64172 0.64649-1.0379 0.07385-0.14237 0.27732-0.46828 0.41356-0.64128 0.20211-0.28671 0.26463-0.42339 0.44554-0.69482 0.23234-0.36815 0.56968-1.1247 0.77689-1.4116zm2.781 5.4741c0.28883 0.39204 0.40108 0.93633 0.54859 1.4834-0.41126-1.4196-1.2664-2.9853-1.9359-4.5521-0.07518-0.18838-0.14959-0.3745-0.2241-0.56229l-1e-6 -1e-6c-0.19306-0.38534 0.51041-0.58463-0.01575-0.03806 8.45e-4 0.01388-0.01065 0.04121-0.01064 0.04116v1e-6c-0.06223 0.20149-0.12842 0.40403-0.19821 0.60671-0.39071 1.1742-1.2582 2.157-1.2666 3.2378-0.0022 0.27412 0.87871 0.04259 1.8527-0.0052l1.0546-0.05169 0.16406-0.02819c0.01577-0.0027 0.06206-0.02164 0.03125-0.13157z" fill="#fdf8f5" stroke-width=".38029" style="font-variant-caps:normal;font-variant-east-asian:normal;font-variant-ligatures:normal;font-variant-numeric:normal"/>
  </g>
 </g>
</svg>
